<svg xmlns="http://www.w3.org/2000/svg" xmlns:xlink="http://www.w3.org/1999/xlink" xmlns:inkscape="http://www.inkscape.org/namespaces/inkscape" version="1.1" width="1920" height="1080" viewBox="0 0 1920 1080">
<defs>
<clipPath id="clip_0">
<path transform="matrix(1,0,0,-1,0,1080)" d="M0 1080H1920V0H0Z"/>
</clipPath>
</defs>
<g inkscape:groupmode="layer" inkscape:label="Layer 1">
<g clip-path="url(#clip_0)">
<path transform="matrix(1,0,0,-1,331.4985,437.3338)" stroke-width=".493" stroke-linecap="butt" stroke-miterlimit="10" stroke-linejoin="miter" fill="none" stroke="#231f20" d="M0 0C145.155-26.964 296.725-35.682 439.095 3.402 451.155 6.713 464.708 11.788 468.965 23.547 472.974 34.62 466.252 47.406 456.238 53.604 446.225 59.801 433.846 60.725 422.082 60.213 387.124 58.694 353.307 45.977 323.39 27.83 301.54 14.576 281.094-2.041 267.708-23.81 254.322-45.58 248.751-73.105 257.194-97.226 266.271-123.158 289.511-141.328 312.954-155.656 340.965-172.774 370.967-186.632 402.161-196.859 457.869-215.123 516.863-221.675 575.484-222.364 805.396-225.063 1036.961-133.828 1195.864 32.354"/>
</g>
</g>
</svg>
