<svg xmlns="http://www.w3.org/2000/svg" xmlns:xlink="http://www.w3.org/1999/xlink" xmlns:inkscape="http://www.inkscape.org/namespaces/inkscape" version="1.1" width="1920" height="1080" viewBox="0 0 1920 1080">
<defs>
<clipPath id="clip_0">
<path transform="matrix(1,0,0,-1,0,1080)" d="M0 1080H1920V0H0Z"/>
</clipPath>
</defs>
<g inkscape:groupmode="layer" inkscape:label="Layer 1">
<path transform="matrix(1,0,0,-1,645.8713,440.9411)" d="M0 0-25.8-66H26.1ZM-18 61.8H20.7L113.1-150.6H60.3L42-105.6H-40.5L-58.2-150.6H-109.8Z" fill="#231f20"/>
<path transform="matrix(1,0,0,-1,0,1080)" d="M968.668 700.859H1015.468V488.459H968.668Z" fill="#231f20"/>
<g clip-path="url(#clip_0)">
<path transform="matrix(1,0,0,-1,1095.2644,485.341)" d="M0 0C0-10.003 1.547-19.153 4.65-27.45 7.749-35.752 12.197-42.952 18-49.05 23.799-55.153 30.75-59.902 38.85-63.3 46.95-66.703 55.997-68.4 66-68.4 75.999-68.4 85.05-66.703 93.15-63.3 101.25-59.902 108.197-55.153 114-49.05 119.799-42.952 124.247-35.752 127.351-27.45 130.448-19.153 132.001-10.003 132.001 0 132.001 9.797 130.448 18.9 127.351 27.3 124.247 35.7 119.799 42.947 114 49.05 108.197 55.148 101.25 59.896 93.15 63.3 85.05 66.698 75.999 68.4 66 68.4 55.997 68.4 46.95 66.698 38.85 63.3 30.75 59.896 23.799 55.148 18 49.05 12.197 42.947 7.749 35.7 4.65 27.3 1.547 18.9 0 9.797 0 0M-48.6 0C-48.6 16.997-45.75 32.4-40.05 46.2-34.35 60-26.4 71.747-16.2 81.45-6 91.148 6.099 98.597 20.1 103.8 34.097 108.998 49.397 111.6 66 111.6 82.599 111.6 97.898 108.998 111.9 103.8 125.897 98.597 138.001 91.148 148.2 81.45 158.401 71.747 166.351 60 172.05 46.2 177.751 32.4 180.601 16.997 180.601 0 180.601-17.002 177.751-32.4 172.05-46.2 166.351-60 158.401-71.752 148.2-81.45 138.001-91.153 125.897-98.602 111.9-103.8 97.898-108.999 82.599-111.6 66-111.6 49.397-111.6 34.097-108.999 20.1-103.8 6.099-98.602-6-91.153-16.2-81.45-26.4-71.752-34.35-60-40.05-46.2-45.75-32.4-48.6-17.002-48.6 0" fill="#231f20"/>
<path transform="matrix(1,0,0,-1,323.9743,431.0412)" d="M0 0C-3.802 4.8-8.953 8.349-15.45 10.65-21.952 12.947-28.102 14.1-33.9 14.1-37.303 14.1-40.8 13.697-44.4 12.9-48 12.099-51.403 10.847-54.6 9.15-57.802 7.448-60.403 5.198-62.4 2.4-64.402-.403-65.4-3.802-65.4-7.8-65.4-14.203-63-19.102-58.2-22.5-53.4-25.903-47.353-28.8-40.05-31.2-32.751-33.6-24.9-36-16.5-38.4-8.1-40.8-.253-44.203 7.05-48.6 14.348-53.001 20.4-58.903 25.2-66.3 30-73.702 32.4-83.602 32.4-96 32.4-107.803 30.197-118.102 25.8-126.9 21.398-135.703 15.45-143.001 7.95-148.8 .45-154.603-8.25-158.901-18.15-161.7-28.05-164.499-38.503-165.9-49.5-165.9-63.3-165.9-76.102-163.8-87.9-159.6-99.703-155.4-110.7-148.603-120.9-139.2L-87.6-102.6C-82.8-109.003-76.753-113.953-69.45-117.45-62.152-120.952-54.6-122.7-46.8-122.7-43.003-122.7-39.15-122.25-35.25-121.35-31.35-120.45-27.853-119.1-24.75-117.3-21.652-115.5-19.153-113.203-17.25-110.4-15.352-107.602-14.4-104.302-14.4-100.5-14.4-94.102-16.852-89.053-21.75-85.35-26.653-81.651-32.803-78.501-40.2-75.9-47.602-73.303-55.603-70.702-64.2-68.1-72.802-65.503-80.803-62.001-88.2-57.6-95.602-53.203-101.751-47.4-106.65-40.2-111.553-33-114-23.503-114-11.7-114-.3-111.75 9.698-107.25 18.3-102.75 26.897-96.75 34.097-89.25 39.9-81.75 45.698-73.102 50.048-63.3 52.95-53.503 55.847-43.402 57.3-33 57.3-21 57.3-9.403 55.599 1.8 52.2 12.999 48.797 23.1 43.097 32.1 35.1Z" fill="#231f20"/>
<path transform="matrix(1,0,0,-1,0,1080)" d="M933.57 659.459H773.07V700.859H933.57Z" fill="#231f20"/>
<path transform="matrix(1,0,0,-1,890.949,455.73634)" d="M0 0-71.367-84.921-97.435-63.013-26.068 21.908Z" fill="#231f20"/>
<path transform="matrix(1,0,0,-1,0,1080)" d="M937.171 531.659H773.07107V488.45899H937.171Z" fill="#231f20"/>
<path transform="matrix(1,0,0,-1,932.4201,378.7881)" stroke-width=".709" stroke-linecap="round" stroke-dasharray="4" stroke-linejoin="round" fill="none" stroke="#231f20" d="M0 0C.756-4.143 1.15-8.411 1.15-12.772 1.15-41.893-16.453-66.903-41.599-77.741"/>
<path transform="matrix(1,0,0,-1,773.7361,547.6811)" stroke-width=".709" stroke-linecap="round" stroke-dasharray="4" stroke-linejoin="round" fill="none" stroke="#231f20" d="M0 0C-.04 .615-.06 1.235-.06 1.86-.06 14.56 8.276 25.312 19.774 28.944"/>
<path transform="matrix(1,0,0,-1,437.9709,469.1413)" d="M0 0H31.2C35.4 0 39.45 .398 43.35 1.2 47.25 1.997 50.747 3.347 53.85 5.25 56.949 7.148 59.447 9.75 61.35 13.05 63.249 16.35 64.2 20.499 64.2 25.5 64.2 30.9 62.949 35.25 60.45 38.55 57.947 41.85 54.75 44.4 50.85 46.2 46.95 48 42.6 49.148 37.8 49.65 33 50.147 28.397 50.4 24 50.4H0ZM-46.8 90H32.1C43.097 90 53.499 88.997 63.3 87 73.097 84.999 81.647 81.548 88.95 76.65 96.249 71.747 102.047 65.147 106.35 56.85 110.648 48.548 112.8 38.1 112.8 25.5 112.8 13.097 110.798 2.7 106.8-5.7 102.797-14.1 97.298-20.803 90.3-25.8 83.297-30.801 75-34.35 65.4-36.45 55.8-38.55 45.398-39.6 34.2-39.6H0V-122.4H-46.8Z" fill="#231f20"/>
</g>
</g>
</svg>
